<svg width="26" height="26" viewBox="0 0 26 26" fill="none" xmlns="http://www.w3.org/2000/svg">
<path d="M11.8823 18.7336C11.7501 18.6659 11.6429 18.5496 11.592 18.3918C11.4936 18.0868 11.6645 17.7529 11.9695 17.6545L17.7964 15.7744L15.9163 9.94752C15.8179 9.6425 15.9889 9.30863 16.2939 9.21021C16.5989 9.11179 16.9328 9.28277 17.0312 9.58779L19.0912 15.9721C19.1896 16.2771 19.0186 16.611 18.7136 16.7094L12.3293 18.7694C12.1715 18.8203 12.0144 18.8013 11.8823 18.7336Z" fill="#EF4444"/>
<path d="M18.1484 16.6131L6.44184 10.6181C6.15665 10.4721 6.04127 10.1145 6.18731 9.8293C6.33336 9.54411 6.69096 9.42873 6.97615 9.57477L18.6827 15.5697C18.9679 15.7158 19.0833 16.0734 18.9372 16.3586C18.7912 16.6438 18.4336 16.7592 18.1484 16.6131Z" fill="#EF4444"/>
</svg>
