<svg width="26" height="26" viewBox="0 0 26 26" fill="none" xmlns="http://www.w3.org/2000/svg">
<path d="M16.9992 16.4888C16.8694 16.5609 16.7131 16.5851 16.5537 16.5396C16.2455 16.4515 16.0634 16.1236 16.1515 15.8154L17.8343 9.92851L11.9474 8.24569C11.6392 8.1576 11.4571 7.82967 11.5452 7.52151C11.6333 7.21335 11.9612 7.03123 12.2694 7.11932L18.7195 8.96313C19.0276 9.05122 19.2097 9.37915 19.1217 9.6873L17.2778 16.1374C17.2323 16.2968 17.129 16.4167 16.9992 16.4888Z" fill="#188A42"/>
<path d="M18.7269 10.1031L7.22887 16.4889C6.94877 16.6444 6.58748 16.5412 6.43191 16.261C6.27634 15.9809 6.37962 15.6197 6.65973 15.4641L18.1578 9.0783C18.4379 8.92274 18.7992 9.02601 18.9547 9.30612C19.1103 9.58623 19.007 9.94752 18.7269 10.1031Z" fill="#188A42"/>
</svg>
