<svg width="29" height="29" viewBox="0 0 29 29" fill="none" xmlns="http://www.w3.org/2000/svg">
<path d="M10.2083 8.55994V9.05994H10.7083H13.45C15.6684 9.05994 17.159 9.55484 18.1029 10.4987C19.0468 11.4426 19.5417 12.9332 19.5417 15.1516V17.8933V18.3933H20.0417H20.45C22.2879 18.3933 23.6747 18.0882 24.5806 17.1822C25.4865 16.2763 25.7917 14.8895 25.7917 13.0516V8.1516C25.7917 6.31372 25.4865 4.92688 24.5806 4.02097C23.6747 3.11505 22.2879 2.80994 20.45 2.80994H15.55C13.7121 2.80994 12.3253 3.11505 11.4194 4.02097C10.5134 4.92688 10.2083 6.31372 10.2083 8.1516V8.55994ZM15.55 2.05994H20.45C22.6684 2.05994 24.159 2.55484 25.1029 3.4987C26.0468 4.44256 26.5417 5.93321 26.5417 8.1516V13.0516C26.5417 15.27 26.0468 16.7606 25.1029 17.7045C24.159 18.6484 22.6684 19.1433 20.45 19.1433H19.1667C18.9645 19.1433 18.7917 18.9705 18.7917 18.7683V15.1516C18.7917 13.3137 18.4865 11.9269 17.5806 11.021C16.6747 10.115 15.2879 9.80994 13.45 9.80994H9.83333C9.63114 9.80994 9.45833 9.63713 9.45833 9.43494V8.1516C9.45833 5.93321 9.95323 4.44256 10.8971 3.4987C11.841 2.55484 13.3316 2.05994 15.55 2.05994Z" fill="#737789" stroke="#737789"/>
<path d="M8.54999 9.05994H13.45C15.6684 9.05994 17.159 9.55484 18.1029 10.4987C19.0468 11.4426 19.5417 12.9332 19.5417 15.1516V20.0516C19.5417 22.27 19.0468 23.7606 18.1029 24.7045C17.159 25.6484 15.6684 26.1433 13.45 26.1433H8.54999C6.33161 26.1433 4.84095 25.6484 3.89709 24.7045C2.95323 23.7606 2.45833 22.27 2.45833 20.0516V15.1516C2.45833 12.9332 2.95323 11.4426 3.89709 10.4987C4.84095 9.55484 6.33161 9.05994 8.54999 9.05994ZM3.20833 20.0516C3.20833 21.8895 3.51344 23.2763 4.41936 24.1822C5.32528 25.0882 6.71211 25.3933 8.54999 25.3933H13.45C15.2879 25.3933 16.6747 25.0882 17.5806 24.1822C18.4865 23.2763 18.7917 21.8895 18.7917 20.0516V15.1516C18.7917 13.3137 18.4865 11.9269 17.5806 11.021C16.6747 10.115 15.2879 9.80994 13.45 9.80994H8.54999C6.71211 9.80994 5.32528 10.115 4.41936 11.021C3.51344 11.9269 3.20833 13.3137 3.20833 15.1516V20.0516Z" fill="#737789" stroke="#737789"/>
<path d="M9.51478 18.9935L9.86834 19.347L10.2219 18.9935L14.1419 15.0735C14.285 14.9304 14.5284 14.9304 14.6714 15.0735L15.025 14.7199L14.6714 15.0735C14.8144 15.2165 14.8145 15.4597 14.6717 15.6028C14.6716 15.6029 14.6715 15.603 14.6714 15.603L10.1219 20.1409L10.1214 20.1414C10.0482 20.2146 9.95233 20.2516 9.86834 20.2516C9.77212 20.2516 9.67985 20.2177 9.60356 20.1414L7.32856 17.8664C7.18548 17.7233 7.18548 17.4799 7.32856 17.3368C7.47163 17.1938 7.71504 17.1938 7.85812 17.3368L9.51478 18.9935Z" fill="#737789" stroke="#737789"/>
</svg>
