<svg width="28" height="29" viewBox="0 0 28 29" fill="none" xmlns="http://www.w3.org/2000/svg">
<path d="M4.0053 8.03292L4.00566 8.03264L10.2936 3.13292C12.0097 1.7982 14.7902 1.7333 16.5709 2.98406L16.5714 2.9844L23.7814 8.03607L23.7823 8.03667C24.3956 8.46441 24.9654 9.1567 25.3824 9.95512C25.7994 10.7536 26.0417 11.6163 26.0417 12.3632V20.8566C26.0417 23.7661 23.6749 26.1432 20.755 26.1432H7.245C4.32578 26.1432 1.95833 23.7667 1.95833 20.8449V12.1999C1.95833 11.5011 2.1768 10.6813 2.55463 9.91198C2.93239 9.14279 3.44902 8.46558 4.0053 8.03292ZM4.46434 8.62051L4.46434 8.6205L4.46202 8.62232C3.9712 9.00945 3.53903 9.61194 3.23082 10.2377C2.92292 10.8629 2.70833 11.5731 2.70833 12.1999V20.8449C2.70833 23.3475 4.73865 25.3932 7.245 25.3932H20.755C23.2595 25.3932 25.2917 23.361 25.2917 20.8566V12.3632C25.2917 11.6979 25.0575 10.9496 24.7173 10.2974C24.3778 9.64668 23.8991 9.02699 23.3497 8.65053L16.1422 3.60063C15.3729 3.06074 14.3817 2.81988 13.4248 2.84065C12.4681 2.86141 11.4908 3.14492 10.7525 3.72062L4.46434 8.62051Z" fill="#6366F1" stroke="#6366F1"/>
<path d="M14 21.9766C13.5217 21.9766 13.125 21.5799 13.125 21.1016V17.6016C13.125 17.1232 13.5217 16.7266 14 16.7266C14.4783 16.7266 14.875 17.1232 14.875 17.6016V21.1016C14.875 21.5799 14.4783 21.9766 14 21.9766Z" fill="#6366F1"/>
</svg>
