<svg width="19" height="18" viewBox="0 0 19 18" fill="none" xmlns="http://www.w3.org/2000/svg">
<path d="M13.58 11.5275C13.4375 11.5275 13.295 11.475 13.1825 11.3625C12.965 11.145 12.965 10.785 13.1825 10.5675L14.705 9.04496L13.1825 7.52246C12.965 7.30496 12.965 6.94496 13.1825 6.72746C13.4 6.50996 13.76 6.50996 13.9775 6.72746L15.8975 8.64746C16.115 8.86496 16.115 9.22496 15.8975 9.44246L13.9775 11.3625C13.865 11.475 13.7225 11.5275 13.58 11.5275Z" fill="#B20D01"/>
<path d="M15.4474 9.60754H7.81995C7.51245 9.60754 7.25745 9.35254 7.25745 9.04504C7.25745 8.73754 7.51245 8.48254 7.81995 8.48254H15.4474C15.7549 8.48254 16.0099 8.73754 16.0099 9.04504C16.0099 9.35254 15.7549 9.60754 15.4474 9.60754Z" fill="#B20D01"/>
<path d="M9.31995 15.5625C5.45745 15.5625 2.75745 12.8625 2.75745 9C2.75745 5.1375 5.45745 2.4375 9.31995 2.4375C9.62745 2.4375 9.88245 2.6925 9.88245 3C9.88245 3.3075 9.62745 3.5625 9.31995 3.5625C6.11745 3.5625 3.88245 5.7975 3.88245 9C3.88245 12.2025 6.11745 14.4375 9.31995 14.4375C9.62745 14.4375 9.88245 14.6925 9.88245 15C9.88245 15.3075 9.62745 15.5625 9.31995 15.5625Z" fill="#B20D01"/>
</svg>
