<svg width="24" height="25" viewBox="0 0 24 25" fill="none" xmlns="http://www.w3.org/2000/svg">
<path d="M17.44 21.11C17 21.11 16.54 20.98 16.07 20.73L12.14 18.54C11.95 18.44 11.54 18.44 11.35 18.54L7.42999 20.73C6.57999 21.2 5.70999 21.24 5.04999 20.85C4.37999 20.46 4 19.68 4 18.72V7.35999C4 5.22999 5.72999 3.5 7.85999 3.5H15.64C17.77 3.5 19.5 5.22999 19.5 7.35999V18.72C19.5 19.68 19.12 20.46 18.45 20.85C18.15 21.02 17.81 21.11 17.44 21.11ZM11.75 16.96C12.15 16.96 12.54 17.05 12.87 17.23L16.8 19.42C17.16 19.62 17.49 19.67 17.69 19.55C17.88 19.44 18 19.12 18 18.71V7.34998C18 6.04998 16.94 4.98999 15.64 4.98999H7.85999C6.55999 4.98999 5.5 6.04998 5.5 7.34998V18.71C5.5 19.12 5.62 19.44 5.81 19.55C6 19.66 6.34001 19.61 6.70001 19.41L10.63 17.22C10.95 17.05 11.35 16.96 11.75 16.96Z" fill="#8C8D8E"/>
</svg>
