<svg width="29" height="29" viewBox="0 0 29 29" fill="none" xmlns="http://www.w3.org/2000/svg">
<path d="M9.5 17.8933C9.27833 17.8933 9.05666 17.8116 8.88166 17.6366C8.54333 17.2983 8.54333 16.7383 8.88166 16.4L12.615 12.6666C12.8017 12.48 13.0467 12.3866 13.315 12.4099C13.5717 12.4333 13.805 12.5733 13.9567 12.7949L15.2283 14.7083L19.37 10.5666C19.7083 10.2283 20.2683 10.2283 20.6067 10.5666C20.945 10.9049 20.945 11.4649 20.6067 11.8033L15.7067 16.7033C15.52 16.89 15.275 16.9833 15.0067 16.96C14.75 16.9366 14.5167 16.7966 14.365 16.575L13.0933 14.6616L10.1183 17.6366C9.94333 17.8116 9.72166 17.8933 9.5 17.8933Z" fill="#737789"/>
<path d="M20 14.3933C19.5217 14.3933 19.125 13.9966 19.125 13.5183V12.0599H17.6667C17.1883 12.0599 16.7917 11.6633 16.7917 11.1849C16.7917 10.7066 17.1883 10.3099 17.6667 10.3099H20C20.4783 10.3099 20.875 10.7066 20.875 11.1849V13.5183C20.875 13.9966 20.4783 14.3933 20 14.3933Z" fill="#737789"/>
<path d="M18.25 26.6433H11.25C4.91499 26.6433 2.20833 23.9366 2.20833 17.6016V10.6016C2.20833 4.2666 4.91499 1.55994 11.25 1.55994H18.25C24.585 1.55994 27.2917 4.2666 27.2917 10.6016V17.6016C27.2917 23.9366 24.585 26.6433 18.25 26.6433ZM11.25 3.30994C5.87166 3.30994 3.95833 5.22327 3.95833 10.6016V17.6016C3.95833 22.9799 5.87166 24.8933 11.25 24.8933H18.25C23.6283 24.8933 25.5417 22.9799 25.5417 17.6016V10.6016C25.5417 5.22327 23.6283 3.30994 18.25 3.30994H11.25Z" fill="#737789"/>
</svg>
