<svg width="29" height="29" viewBox="0 0 29 29" fill="none" xmlns="http://www.w3.org/2000/svg">
<path d="M14.25 14.9766C10.5517 14.9766 7.54166 11.9666 7.54166 8.26827C7.54166 4.56994 10.5517 1.55994 14.25 1.55994C17.9483 1.55994 20.9583 4.56994 20.9583 8.26827C20.9583 11.9666 17.9483 14.9766 14.25 14.9766ZM14.25 3.30994C11.52 3.30994 9.29166 5.53827 9.29166 8.26827C9.29166 10.9983 11.52 13.2266 14.25 13.2266C16.98 13.2266 19.2083 10.9983 19.2083 8.26827C19.2083 5.53827 16.98 3.30994 14.25 3.30994Z" fill="#737789"/>
<path d="M24.2718 26.6432C23.7935 26.6432 23.3968 26.2466 23.3968 25.7682C23.3968 21.7432 19.2902 18.4766 14.2502 18.4766C9.21018 18.4766 5.10352 21.7432 5.10352 25.7682C5.10352 26.2466 4.70685 26.6432 4.22852 26.6432C3.75018 26.6432 3.35352 26.2466 3.35352 25.7682C3.35352 20.7866 8.24185 16.7266 14.2502 16.7266C20.2585 16.7266 25.1468 20.7866 25.1468 25.7682C25.1468 26.2466 24.7502 26.6432 24.2718 26.6432Z" fill="#737789"/>
</svg>
